<mxfile host="app.diagrams.net" modified="2020-04-11T17:33:56.073Z" agent="Mozilla/5.0 (X11; Linux x86_64) AppleWebKit/537.36 (KHTML, like Gecko) Chrome/80.0.3987.116 Safari/537.36" etag="790XfmyHmgYtj8CaeEgN" version="12.8.6" type="github">
  <diagram id="o19s0SDb9cR4jirKTGXS" name="Page-1">
    <mxGraphModel dx="1350" dy="688" grid="1" gridSize="10" guides="1" tooltips="1" connect="1" arrows="1" fold="1" page="1" pageScale="1" pageWidth="1654" pageHeight="2336" math="0" shadow="0">
      <root>
        <mxCell id="0" />
        <mxCell id="1" parent="0" />
        <mxCell id="tAKBpEIWcsHck8Nqo_m--24" style="edgeStyle=orthogonalEdgeStyle;rounded=0;orthogonalLoop=1;jettySize=auto;html=1;" edge="1" parent="1" source="tAKBpEIWcsHck8Nqo_m--1" target="tAKBpEIWcsHck8Nqo_m--20">
          <mxGeometry relative="1" as="geometry" />
        </mxCell>
        <mxCell id="tAKBpEIWcsHck8Nqo_m--1" value="&lt;font style=&quot;font-size: 29px&quot;&gt;&lt;b&gt;1&lt;/b&gt;&lt;/font&gt;" style="ellipse;whiteSpace=wrap;html=1;" vertex="1" parent="1">
          <mxGeometry x="1170" y="310" width="80" height="80" as="geometry" />
        </mxCell>
        <mxCell id="tAKBpEIWcsHck8Nqo_m--2" value="&lt;font size=&quot;1&quot;&gt;&lt;b style=&quot;font-size: 24px&quot;&gt;Add Assignment&amp;nbsp;&lt;/b&gt;&lt;/font&gt;" style="text;html=1;strokeColor=none;fillColor=none;align=center;verticalAlign=middle;whiteSpace=wrap;rounded=0;" vertex="1" parent="1">
          <mxGeometry x="1050" y="200" width="300" height="20" as="geometry" />
        </mxCell>
        <mxCell id="tAKBpEIWcsHck8Nqo_m--4" value="&lt;font style=&quot;font-size: 29px&quot;&gt;&lt;b&gt;19&lt;/b&gt;&lt;/font&gt;" style="ellipse;whiteSpace=wrap;html=1;" vertex="1" parent="1">
          <mxGeometry x="1400" y="1088" width="80" height="80" as="geometry" />
        </mxCell>
        <mxCell id="tAKBpEIWcsHck8Nqo_m--49" style="edgeStyle=orthogonalEdgeStyle;rounded=0;orthogonalLoop=1;jettySize=auto;html=1;entryX=0;entryY=0.5;entryDx=0;entryDy=0;" edge="1" parent="1" source="tAKBpEIWcsHck8Nqo_m--5" target="tAKBpEIWcsHck8Nqo_m--9">
          <mxGeometry relative="1" as="geometry">
            <mxPoint x="680" y="1630" as="targetPoint" />
            <Array as="points">
              <mxPoint x="680" y="740" />
              <mxPoint x="680" y="1630" />
            </Array>
          </mxGeometry>
        </mxCell>
        <mxCell id="tAKBpEIWcsHck8Nqo_m--5" value="&lt;span style=&quot;font-size: 29px&quot;&gt;&lt;b&gt;6&lt;/b&gt;&lt;/span&gt;" style="ellipse;whiteSpace=wrap;html=1;" vertex="1" parent="1">
          <mxGeometry x="640" y="700" width="80" height="80" as="geometry" />
        </mxCell>
        <mxCell id="tAKBpEIWcsHck8Nqo_m--6" value="&lt;font style=&quot;font-size: 29px&quot;&gt;&lt;b&gt;18&lt;/b&gt;&lt;/font&gt;" style="ellipse;whiteSpace=wrap;html=1;" vertex="1" parent="1">
          <mxGeometry x="1400" y="960" width="80" height="80" as="geometry" />
        </mxCell>
        <mxCell id="tAKBpEIWcsHck8Nqo_m--46" style="edgeStyle=orthogonalEdgeStyle;rounded=0;orthogonalLoop=1;jettySize=auto;html=1;entryX=0;entryY=0.5;entryDx=0;entryDy=0;exitX=0.5;exitY=1;exitDx=0;exitDy=0;" edge="1" parent="1" source="tAKBpEIWcsHck8Nqo_m--7" target="tAKBpEIWcsHck8Nqo_m--9">
          <mxGeometry relative="1" as="geometry">
            <mxPoint x="950" y="1650" as="targetPoint" />
            <Array as="points">
              <mxPoint x="950" y="1630" />
            </Array>
          </mxGeometry>
        </mxCell>
        <mxCell id="tAKBpEIWcsHck8Nqo_m--7" value="&lt;font style=&quot;font-size: 29px&quot;&gt;&lt;b&gt;15&lt;/b&gt;&lt;/font&gt;" style="ellipse;whiteSpace=wrap;html=1;" vertex="1" parent="1">
          <mxGeometry x="910" y="1350" width="80" height="80" as="geometry" />
        </mxCell>
        <mxCell id="tAKBpEIWcsHck8Nqo_m--44" style="edgeStyle=orthogonalEdgeStyle;rounded=0;orthogonalLoop=1;jettySize=auto;html=1;entryX=1;entryY=0.5;entryDx=0;entryDy=0;" edge="1" parent="1" source="tAKBpEIWcsHck8Nqo_m--8" target="tAKBpEIWcsHck8Nqo_m--7">
          <mxGeometry relative="1" as="geometry" />
        </mxCell>
        <mxCell id="tAKBpEIWcsHck8Nqo_m--8" value="&lt;font style=&quot;font-size: 29px&quot;&gt;&lt;b&gt;14&lt;/b&gt;&lt;/font&gt;" style="ellipse;whiteSpace=wrap;html=1;" vertex="1" parent="1">
          <mxGeometry x="1040" y="1350" width="80" height="80" as="geometry" />
        </mxCell>
        <mxCell id="tAKBpEIWcsHck8Nqo_m--9" value="&lt;font style=&quot;font-size: 29px&quot;&gt;&lt;b&gt;17&lt;/b&gt;&lt;/font&gt;" style="ellipse;whiteSpace=wrap;html=1;" vertex="1" parent="1">
          <mxGeometry x="1170" y="1590" width="80" height="80" as="geometry" />
        </mxCell>
        <mxCell id="tAKBpEIWcsHck8Nqo_m--40" style="edgeStyle=orthogonalEdgeStyle;rounded=0;orthogonalLoop=1;jettySize=auto;html=1;" edge="1" parent="1" source="tAKBpEIWcsHck8Nqo_m--10" target="tAKBpEIWcsHck8Nqo_m--9">
          <mxGeometry relative="1" as="geometry" />
        </mxCell>
        <mxCell id="tAKBpEIWcsHck8Nqo_m--10" value="&lt;font style=&quot;font-size: 29px&quot;&gt;&lt;b&gt;16&lt;/b&gt;&lt;/font&gt;" style="ellipse;whiteSpace=wrap;html=1;" vertex="1" parent="1">
          <mxGeometry x="1170" y="1470" width="80" height="80" as="geometry" />
        </mxCell>
        <mxCell id="tAKBpEIWcsHck8Nqo_m--39" style="edgeStyle=orthogonalEdgeStyle;rounded=0;orthogonalLoop=1;jettySize=auto;html=1;" edge="1" parent="1" source="tAKBpEIWcsHck8Nqo_m--11" target="tAKBpEIWcsHck8Nqo_m--10">
          <mxGeometry relative="1" as="geometry" />
        </mxCell>
        <mxCell id="tAKBpEIWcsHck8Nqo_m--41" style="edgeStyle=orthogonalEdgeStyle;rounded=0;orthogonalLoop=1;jettySize=auto;html=1;entryX=1;entryY=0.5;entryDx=0;entryDy=0;" edge="1" parent="1" source="tAKBpEIWcsHck8Nqo_m--11" target="tAKBpEIWcsHck8Nqo_m--8">
          <mxGeometry relative="1" as="geometry" />
        </mxCell>
        <mxCell id="tAKBpEIWcsHck8Nqo_m--11" value="&lt;font style=&quot;font-size: 29px&quot;&gt;&lt;b&gt;13&lt;/b&gt;&lt;/font&gt;" style="ellipse;whiteSpace=wrap;html=1;" vertex="1" parent="1">
          <mxGeometry x="1170" y="1350" width="80" height="80" as="geometry" />
        </mxCell>
        <mxCell id="tAKBpEIWcsHck8Nqo_m--38" style="edgeStyle=orthogonalEdgeStyle;rounded=0;orthogonalLoop=1;jettySize=auto;html=1;entryX=0.5;entryY=0;entryDx=0;entryDy=0;" edge="1" parent="1" source="tAKBpEIWcsHck8Nqo_m--12" target="tAKBpEIWcsHck8Nqo_m--11">
          <mxGeometry relative="1" as="geometry" />
        </mxCell>
        <mxCell id="tAKBpEIWcsHck8Nqo_m--12" value="&lt;font style=&quot;font-size: 29px&quot;&gt;&lt;b&gt;12&lt;/b&gt;&lt;/font&gt;" style="ellipse;whiteSpace=wrap;html=1;" vertex="1" parent="1">
          <mxGeometry x="1170" y="1220" width="80" height="80" as="geometry" />
        </mxCell>
        <mxCell id="tAKBpEIWcsHck8Nqo_m--37" style="edgeStyle=orthogonalEdgeStyle;rounded=0;orthogonalLoop=1;jettySize=auto;html=1;" edge="1" parent="1" source="tAKBpEIWcsHck8Nqo_m--13" target="tAKBpEIWcsHck8Nqo_m--12">
          <mxGeometry relative="1" as="geometry" />
        </mxCell>
        <mxCell id="tAKBpEIWcsHck8Nqo_m--13" value="&lt;font style=&quot;font-size: 29px&quot;&gt;&lt;b&gt;11&lt;/b&gt;&lt;/font&gt;" style="ellipse;whiteSpace=wrap;html=1;" vertex="1" parent="1">
          <mxGeometry x="1170" y="1088" width="80" height="80" as="geometry" />
        </mxCell>
        <mxCell id="tAKBpEIWcsHck8Nqo_m--47" style="edgeStyle=orthogonalEdgeStyle;rounded=0;orthogonalLoop=1;jettySize=auto;html=1;entryX=0;entryY=0.5;entryDx=0;entryDy=0;" edge="1" parent="1" source="tAKBpEIWcsHck8Nqo_m--14" target="tAKBpEIWcsHck8Nqo_m--9">
          <mxGeometry relative="1" as="geometry">
            <mxPoint x="840" y="1711.4285714285713" as="targetPoint" />
            <Array as="points">
              <mxPoint x="840" y="1630" />
            </Array>
          </mxGeometry>
        </mxCell>
        <mxCell id="tAKBpEIWcsHck8Nqo_m--14" value="&lt;font style=&quot;font-size: 29px&quot;&gt;&lt;b&gt;10&lt;/b&gt;&lt;/font&gt;" style="ellipse;whiteSpace=wrap;html=1;" vertex="1" parent="1">
          <mxGeometry x="800" y="960" width="80" height="80" as="geometry" />
        </mxCell>
        <mxCell id="tAKBpEIWcsHck8Nqo_m--35" style="edgeStyle=orthogonalEdgeStyle;rounded=0;orthogonalLoop=1;jettySize=auto;html=1;entryX=1;entryY=0.5;entryDx=0;entryDy=0;" edge="1" parent="1" source="tAKBpEIWcsHck8Nqo_m--15" target="tAKBpEIWcsHck8Nqo_m--14">
          <mxGeometry relative="1" as="geometry" />
        </mxCell>
        <mxCell id="tAKBpEIWcsHck8Nqo_m--36" style="edgeStyle=orthogonalEdgeStyle;rounded=0;orthogonalLoop=1;jettySize=auto;html=1;" edge="1" parent="1" source="tAKBpEIWcsHck8Nqo_m--15" target="tAKBpEIWcsHck8Nqo_m--13">
          <mxGeometry relative="1" as="geometry" />
        </mxCell>
        <mxCell id="tAKBpEIWcsHck8Nqo_m--15" value="&lt;span style=&quot;font-size: 29px&quot;&gt;&lt;b&gt;9&lt;/b&gt;&lt;/span&gt;" style="ellipse;whiteSpace=wrap;html=1;" vertex="1" parent="1">
          <mxGeometry x="1170" y="960" width="80" height="80" as="geometry" />
        </mxCell>
        <mxCell id="tAKBpEIWcsHck8Nqo_m--48" style="edgeStyle=orthogonalEdgeStyle;rounded=0;orthogonalLoop=1;jettySize=auto;html=1;entryX=0;entryY=0.5;entryDx=0;entryDy=0;" edge="1" parent="1" source="tAKBpEIWcsHck8Nqo_m--16" target="tAKBpEIWcsHck8Nqo_m--9">
          <mxGeometry relative="1" as="geometry">
            <mxPoint x="760" y="1630" as="targetPoint" />
            <Array as="points">
              <mxPoint x="760" y="870" />
              <mxPoint x="760" y="1630" />
            </Array>
          </mxGeometry>
        </mxCell>
        <mxCell id="tAKBpEIWcsHck8Nqo_m--16" value="&lt;span style=&quot;font-size: 29px&quot;&gt;&lt;b&gt;8&lt;/b&gt;&lt;/span&gt;" style="ellipse;whiteSpace=wrap;html=1;" vertex="1" parent="1">
          <mxGeometry x="720" y="830" width="80" height="80" as="geometry" />
        </mxCell>
        <mxCell id="tAKBpEIWcsHck8Nqo_m--33" style="edgeStyle=orthogonalEdgeStyle;rounded=0;orthogonalLoop=1;jettySize=auto;html=1;" edge="1" parent="1" source="tAKBpEIWcsHck8Nqo_m--17" target="tAKBpEIWcsHck8Nqo_m--16">
          <mxGeometry relative="1" as="geometry" />
        </mxCell>
        <mxCell id="tAKBpEIWcsHck8Nqo_m--34" style="edgeStyle=orthogonalEdgeStyle;rounded=0;orthogonalLoop=1;jettySize=auto;html=1;exitX=0.5;exitY=1;exitDx=0;exitDy=0;" edge="1" parent="1" source="tAKBpEIWcsHck8Nqo_m--17" target="tAKBpEIWcsHck8Nqo_m--15">
          <mxGeometry relative="1" as="geometry" />
        </mxCell>
        <mxCell id="tAKBpEIWcsHck8Nqo_m--17" value="&lt;span style=&quot;font-size: 29px&quot;&gt;&lt;b&gt;7&lt;/b&gt;&lt;/span&gt;" style="ellipse;whiteSpace=wrap;html=1;" vertex="1" parent="1">
          <mxGeometry x="1170" y="830" width="80" height="80" as="geometry" />
        </mxCell>
        <mxCell id="tAKBpEIWcsHck8Nqo_m--50" style="edgeStyle=orthogonalEdgeStyle;rounded=0;orthogonalLoop=1;jettySize=auto;html=1;entryX=0;entryY=0.5;entryDx=0;entryDy=0;" edge="1" parent="1" source="tAKBpEIWcsHck8Nqo_m--18" target="tAKBpEIWcsHck8Nqo_m--9">
          <mxGeometry relative="1" as="geometry">
            <mxPoint x="640" y="1630" as="targetPoint" />
            <Array as="points">
              <mxPoint x="610" y="610" />
              <mxPoint x="610" y="1630" />
            </Array>
          </mxGeometry>
        </mxCell>
        <mxCell id="tAKBpEIWcsHck8Nqo_m--18" value="&lt;span style=&quot;font-size: 29px&quot;&gt;&lt;b&gt;4&lt;/b&gt;&lt;/span&gt;" style="ellipse;whiteSpace=wrap;html=1;" vertex="1" parent="1">
          <mxGeometry x="570" y="570" width="80" height="80" as="geometry" />
        </mxCell>
        <mxCell id="tAKBpEIWcsHck8Nqo_m--27" style="edgeStyle=orthogonalEdgeStyle;rounded=0;orthogonalLoop=1;jettySize=auto;html=1;" edge="1" parent="1" source="tAKBpEIWcsHck8Nqo_m--19" target="tAKBpEIWcsHck8Nqo_m--21">
          <mxGeometry relative="1" as="geometry" />
        </mxCell>
        <mxCell id="tAKBpEIWcsHck8Nqo_m--29" style="edgeStyle=orthogonalEdgeStyle;rounded=0;orthogonalLoop=1;jettySize=auto;html=1;entryX=1;entryY=0.5;entryDx=0;entryDy=0;" edge="1" parent="1" source="tAKBpEIWcsHck8Nqo_m--19" target="tAKBpEIWcsHck8Nqo_m--18">
          <mxGeometry relative="1" as="geometry" />
        </mxCell>
        <mxCell id="tAKBpEIWcsHck8Nqo_m--19" value="&lt;span style=&quot;font-size: 29px&quot;&gt;&lt;b&gt;3&lt;/b&gt;&lt;/span&gt;" style="ellipse;whiteSpace=wrap;html=1;" vertex="1" parent="1">
          <mxGeometry x="1170" y="570" width="80" height="80" as="geometry" />
        </mxCell>
        <mxCell id="tAKBpEIWcsHck8Nqo_m--25" style="edgeStyle=orthogonalEdgeStyle;rounded=0;orthogonalLoop=1;jettySize=auto;html=1;" edge="1" parent="1" source="tAKBpEIWcsHck8Nqo_m--20" target="tAKBpEIWcsHck8Nqo_m--19">
          <mxGeometry relative="1" as="geometry" />
        </mxCell>
        <mxCell id="tAKBpEIWcsHck8Nqo_m--20" value="&lt;span style=&quot;font-size: 29px&quot;&gt;&lt;b&gt;2&lt;/b&gt;&lt;/span&gt;" style="ellipse;whiteSpace=wrap;html=1;" vertex="1" parent="1">
          <mxGeometry x="1170" y="440" width="80" height="80" as="geometry" />
        </mxCell>
        <mxCell id="tAKBpEIWcsHck8Nqo_m--31" style="edgeStyle=orthogonalEdgeStyle;rounded=0;orthogonalLoop=1;jettySize=auto;html=1;entryX=1;entryY=0.5;entryDx=0;entryDy=0;" edge="1" parent="1" source="tAKBpEIWcsHck8Nqo_m--21" target="tAKBpEIWcsHck8Nqo_m--5">
          <mxGeometry relative="1" as="geometry" />
        </mxCell>
        <mxCell id="tAKBpEIWcsHck8Nqo_m--32" style="edgeStyle=orthogonalEdgeStyle;rounded=0;orthogonalLoop=1;jettySize=auto;html=1;" edge="1" parent="1" source="tAKBpEIWcsHck8Nqo_m--21" target="tAKBpEIWcsHck8Nqo_m--17">
          <mxGeometry relative="1" as="geometry" />
        </mxCell>
        <mxCell id="tAKBpEIWcsHck8Nqo_m--21" value="&lt;span style=&quot;font-size: 29px&quot;&gt;&lt;b&gt;5&lt;/b&gt;&lt;/span&gt;" style="ellipse;whiteSpace=wrap;html=1;" vertex="1" parent="1">
          <mxGeometry x="1170" y="700" width="80" height="80" as="geometry" />
        </mxCell>
        <mxCell id="tAKBpEIWcsHck8Nqo_m--51" value="" style="endArrow=none;dashed=1;html=1;exitX=0.5;exitY=0;exitDx=0;exitDy=0;entryX=0.5;entryY=1;entryDx=0;entryDy=0;" edge="1" parent="1" target="tAKBpEIWcsHck8Nqo_m--6">
          <mxGeometry width="50" height="50" relative="1" as="geometry">
            <mxPoint x="1440" y="1070" as="sourcePoint" />
            <mxPoint x="1410" y="1040" as="targetPoint" />
          </mxGeometry>
        </mxCell>
        <mxCell id="tAKBpEIWcsHck8Nqo_m--53" value="" style="endArrow=none;dashed=1;html=1;" edge="1" parent="1" source="tAKBpEIWcsHck8Nqo_m--4">
          <mxGeometry width="50" height="50" relative="1" as="geometry">
            <mxPoint x="1440" y="1218" as="sourcePoint" />
            <mxPoint x="1252" y="1630" as="targetPoint" />
            <Array as="points">
              <mxPoint x="1440" y="1630" />
            </Array>
          </mxGeometry>
        </mxCell>
        <mxCell id="tAKBpEIWcsHck8Nqo_m--68" value="" style="endArrow=none;dashed=1;html=1;strokeColor=#000000;targetPerimeterSpacing=-4;" edge="1" parent="1" source="tAKBpEIWcsHck8Nqo_m--15">
          <mxGeometry width="50" height="50" relative="1" as="geometry">
            <mxPoint x="1250" y="1000" as="sourcePoint" />
            <mxPoint x="1394" y="1000.0000000000002" as="targetPoint" />
          </mxGeometry>
        </mxCell>
      </root>
    </mxGraphModel>
  </diagram>
</mxfile>
